<svg width="2109" height="943" xmlns="http://www.w3.org/2000/svg" xmlns:xlink="http://www.w3.org/1999/xlink" xml:space="preserve" overflow="hidden"><defs><filter id="fx0" x="-10%" y="-10%" width="120%" height="120%" filterUnits="userSpaceOnUse" primitiveUnits="userSpaceOnUse"><feComponentTransfer color-interpolation-filters="sRGB"><feFuncR type="discrete" tableValues="0 0"/><feFuncG type="discrete" tableValues="0 0"/><feFuncB type="discrete" tableValues="0 0"/><feFuncA type="linear" slope="0.380392" intercept="0"/></feComponentTransfer><feGaussianBlur stdDeviation="4.8119 4.8119"/></filter><filter id="fx1" x="-10%" y="-10%" width="120%" height="120%" filterUnits="userSpaceOnUse" primitiveUnits="userSpaceOnUse"><feComponentTransfer color-interpolation-filters="sRGB"><feFuncR type="discrete" tableValues="0 0"/><feFuncG type="discrete" tableValues="0 0"/><feFuncB type="discrete" tableValues="0 0"/><feFuncA type="linear" slope="0.380392" intercept="0"/></feComponentTransfer><feGaussianBlur stdDeviation="4.8119 4.8119"/></filter><filter id="fx2" x="-10%" y="-10%" width="120%" height="120%" filterUnits="userSpaceOnUse" primitiveUnits="userSpaceOnUse"><feComponentTransfer color-interpolation-filters="sRGB"><feFuncR type="discrete" tableValues="0 0"/><feFuncG type="discrete" tableValues="0 0"/><feFuncB type="discrete" tableValues="0 0"/><feFuncA type="linear" slope="0.380392" intercept="0"/></feComponentTransfer><feGaussianBlur stdDeviation="4.8119 4.8119"/></filter><filter id="fx3" x="-10%" y="-10%" width="120%" height="120%" filterUnits="userSpaceOnUse" primitiveUnits="userSpaceOnUse"><feComponentTransfer color-interpolation-filters="sRGB"><feFuncR type="discrete" tableValues="0 0"/><feFuncG type="discrete" tableValues="0 0"/><feFuncB type="discrete" tableValues="0 0"/><feFuncA type="linear" slope="0.380392" intercept="0"/></feComponentTransfer><feGaussianBlur stdDeviation="4.8119 4.8119"/></filter><filter id="fx4" x="-10%" y="-10%" width="120%" height="120%" filterUnits="userSpaceOnUse" primitiveUnits="userSpaceOnUse"><feComponentTransfer color-interpolation-filters="sRGB"><feFuncR type="discrete" tableValues="0 0"/><feFuncG type="discrete" tableValues="0 0"/><feFuncB type="discrete" tableValues="0 0"/><feFuncA type="linear" slope="0.380392" intercept="0"/></feComponentTransfer><feGaussianBlur stdDeviation="4.8119 4.8119"/></filter><clipPath id="clip5"><rect x="-15" y="-8" width="2109" height="943"/></clipPath><clipPath id="clip6"><path d="M1.49989 354.5 1.49989 743.5 64.2066 743.5 64.2066 417.168 647.5 417.168 647.5 354.5ZM-15-7.99998 2094-7.99998 2094 935-15 935Z" fill-rule="evenodd" clip-rule="evenodd"/></clipPath><linearGradient x1="1.49988" y1="549" x2="647.5" y2="549" gradientUnits="userSpaceOnUse" spreadMethod="reflect" id="fill7"><stop offset="0" stop-color="#C3C3C3"/><stop offset="0.35" stop-color="#D5D5D5"/><stop offset="1" stop-color="#EFEFEF"/></linearGradient><clipPath id="clip8"><path d="M649.5 178.5 539.5 288.5 649.5 288.5ZM-15-7.99998 2094-7.99998 2094 935-15 935Z" fill-rule="evenodd" clip-rule="evenodd"/></clipPath><linearGradient x1="594.5" y1="288.5" x2="594.5" y2="178.5" gradientUnits="userSpaceOnUse" spreadMethod="reflect" id="fill9"><stop offset="0" stop-color="#C3C3C3"/><stop offset="0.35" stop-color="#D5D5D5"/><stop offset="1" stop-color="#EFEFEF"/></linearGradient><clipPath id="clip10"><path d="M715.5 177.5 715.5 566.5 778.207 566.5 778.207 240.168 1362.5 240.168 1362.5 177.5ZM-15-7.99998 2094-7.99998 2094 935-15 935Z" fill-rule="evenodd" clip-rule="evenodd"/></clipPath><linearGradient x1="715.5" y1="372" x2="1362.5" y2="372" gradientUnits="userSpaceOnUse" spreadMethod="reflect" id="fill11"><stop offset="0" stop-color="#C3C3C3"/><stop offset="0.35" stop-color="#D5D5D5"/><stop offset="1" stop-color="#EFEFEF"/></linearGradient><clipPath id="clip12"><path d="M1364.5 1.49989 1253.5 111.5 1364.5 111.5ZM-15-7.99998 2094-7.99998 2094 935-15 935Z" fill-rule="evenodd" clip-rule="evenodd"/></clipPath><linearGradient x1="1309" y1="111.5" x2="1309" y2="1.49987" gradientUnits="userSpaceOnUse" spreadMethod="reflect" id="fill13"><stop offset="0" stop-color="#C3C3C3"/><stop offset="0.35" stop-color="#D5D5D5"/><stop offset="1" stop-color="#EFEFEF"/></linearGradient><clipPath id="clip14"><path d="M1430.5 1.49989 1430.5 389.5 1493.05 389.5 1493.05 64.0065 2077.5 64.0065 2077.5 1.49989ZM-15-7.99998 2094-7.99998 2094 935-15 935Z" fill-rule="evenodd" clip-rule="evenodd"/></clipPath><linearGradient x1="1430.5" y1="195.5" x2="2077.5" y2="195.5" gradientUnits="userSpaceOnUse" spreadMethod="reflect" id="fill15"><stop offset="0" stop-color="#C3C3C3"/><stop offset="0.35" stop-color="#D5D5D5"/><stop offset="1" stop-color="#EFEFEF"/></linearGradient></defs><g clip-path="url(#clip5)" transform="translate(15 8)"><g clip-path="url(#clip6)"><g filter="url(#fx0)" transform="translate(-16 344)"><g><path d="M663.5 17.7177 663.5 80.3856 80.2065 80.3856 80.2065 406.718 17.4999 406.718 17.4999 17.7177Z" stroke="#535353" stroke-width="3" stroke-linejoin="round" stroke-miterlimit="10" fill="#FF0000" fill-rule="evenodd"/></g></g></g><path d="M647.5 354.5 647.5 417.168 64.2065 417.168 64.2065 743.5 1.49988 743.5 1.49988 354.5Z" stroke="#535353" stroke-width="3.4375" stroke-linejoin="round" stroke-miterlimit="10" fill="url(#fill7)" fill-rule="evenodd"/><rect x="65.5002" y="419.5" width="584" height="511" stroke="#555555" stroke-width="9.16667" stroke-linejoin="round" stroke-miterlimit="10" fill="#FFFFFF"/><text fill="#555555" font-family="Arial,Arial_MSFontService,sans-serif" font-weight="400" font-size="64" transform="matrix(1 0 0 1 84.0457 491)">Risikoanalyse</text><text fill="#555555" font-family="Arial,Arial_MSFontService,sans-serif" font-weight="400" font-size="50" transform="matrix(1 0 0 1 84.0457 572)">•</text><text fill="#555555" font-family="Arial,Arial_MSFontService,sans-serif" font-weight="400" font-size="50" transform="matrix(1 0 0 1 104.671 572)">Verwendungsgrenzen </text><text fill="#555555" font-family="Arial,Arial_MSFontService,sans-serif" font-weight="400" font-size="50" transform="matrix(1 0 0 1 104.671 624)">festlegen</text><text fill="#555555" font-family="Arial,Arial_MSFontService,sans-serif" font-weight="400" font-size="50" transform="matrix(1 0 0 1 84.0457 685)">•</text><text fill="#555555" font-family="Arial,Arial_MSFontService,sans-serif" font-weight="400" font-size="50" transform="matrix(1 0 0 1 104.671 685)">Gefährdungen </text><text fill="#555555" font-family="Arial,Arial_MSFontService,sans-serif" font-weight="400" font-size="50" transform="matrix(1 0 0 1 104.671 737)">identifizieren</text><text fill="#555555" font-family="Arial,Arial_MSFontService,sans-serif" font-weight="400" font-size="50" transform="matrix(1 0 0 1 84.0457 798)">•</text><text fill="#555555" font-family="Arial,Arial_MSFontService,sans-serif" font-weight="400" font-size="50" transform="matrix(1 0 0 1 104.671 798)">Risiko einschätzen</text><g clip-path="url(#clip8)"><g filter="url(#fx1)" transform="translate(522 168)"><g><path d="M17.4998 127.718 127.5 17.7177 127.5 127.718Z" stroke="#535353" stroke-width="3" stroke-linejoin="round" stroke-miterlimit="10" fill="#FF0000" fill-rule="evenodd"/></g></g></g><path d="M539.5 288.5 649.5 178.5 649.5 288.5Z" stroke="#535353" stroke-width="3.4375" stroke-linejoin="round" stroke-miterlimit="10" fill="url(#fill9)" fill-rule="evenodd"/><g clip-path="url(#clip10)"><g filter="url(#fx2)" transform="translate(698 167)"><g><path d="M664.5 17.7179 664.5 80.3858 80.2065 80.3858 80.2065 406.718 17.4997 406.718 17.4997 17.7179Z" stroke="#535353" stroke-width="3" stroke-linejoin="round" stroke-miterlimit="10" fill="#FF0000" fill-rule="evenodd"/></g></g></g><path d="M1362.5 177.5 1362.5 240.168 778.206 240.168 778.206 566.5 715.5 566.5 715.5 177.5Z" stroke="#535353" stroke-width="3.4375" stroke-linejoin="round" stroke-miterlimit="10" fill="url(#fill11)" fill-rule="evenodd"/><rect x="780.5" y="242.5" width="584" height="511" stroke="#555555" stroke-width="9.16667" stroke-linejoin="round" stroke-miterlimit="10" fill="#FFFFFF"/><text fill="#555555" font-family="Arial,Arial_MSFontService,sans-serif" font-weight="400" font-size="64" transform="matrix(1 0 0 1 798.872 314)">Risiko bewerten</text><text fill="#555555" font-family="Arial,Arial_MSFontService,sans-serif" font-weight="400" font-size="50" transform="matrix(1 0 0 1 798.872 395)">•</text><text fill="#555555" font-family="Arial,Arial_MSFontService,sans-serif" font-weight="400" font-size="50" transform="matrix(1 0 0 1 819.497 395)">Falls erforderlich </text><text fill="#555555" font-family="Arial,Arial_MSFontService,sans-serif" font-weight="400" font-size="50" transform="matrix(1 0 0 1 819.497 447)">Risikominderungs</text><text fill="#555555" font-family="Arial,Arial_MSFontService,sans-serif" font-weight="400" font-size="50" transform="matrix(1 0 0 1 1220.31 447)">-</text><text fill="#555555" font-family="Arial,Arial_MSFontService,sans-serif" font-weight="400" font-size="50" transform="matrix(1 0 0 1 819.497 499)">bzw. </text><text fill="#555555" font-family="Arial,Arial_MSFontService,sans-serif" font-weight="400" font-size="50" transform="matrix(1 0 0 1 937.174 499)">Schutz</text><text fill="#555555" font-family="Arial,Arial_MSFontService,sans-serif" font-weight="400" font-size="50" transform="matrix(1 0 0 1 1091.31 499)">-</text><text fill="#555555" font-family="Arial,Arial_MSFontService,sans-serif" font-weight="400" font-size="50" transform="matrix(1 0 0 1 819.497 551)">maßnahmen festlegen</text><g clip-path="url(#clip12)"><g filter="url(#fx3)" transform="translate(1236 -9)"><g><path d="M17.5001 127.718 128.5 17.7177 128.5 127.718Z" stroke="#535353" stroke-width="3" stroke-linejoin="round" stroke-miterlimit="10" fill="#FF0000" fill-rule="evenodd"/></g></g></g><path d="M1253.5 111.5 1364.5 1.49987 1364.5 111.5Z" stroke="#535353" stroke-width="3.4375" stroke-linejoin="round" stroke-miterlimit="10" fill="url(#fill13)" fill-rule="evenodd"/><g clip-path="url(#clip14)"><g filter="url(#fx4)" transform="translate(1413 -9)"><g><path d="M664.5 17.7177 664.5 80.2243 80.0452 80.2243 80.0452 405.718 17.4997 405.718 17.4997 17.7177Z" stroke="#535353" stroke-width="3" stroke-linejoin="round" stroke-miterlimit="10" fill="#FF0000" fill-rule="evenodd"/></g></g></g><path d="M2077.5 1.49987 2077.5 64.0065 1493.05 64.0065 1493.05 389.5 1430.5 389.5 1430.5 1.49987Z" stroke="#535353" stroke-width="3.4375" stroke-linejoin="round" stroke-miterlimit="10" fill="url(#fill15)" fill-rule="evenodd"/><rect x="1494.5" y="65.5002" width="584" height="512" stroke="#555555" stroke-width="9.16667" stroke-linejoin="round" stroke-miterlimit="10" fill="#FFFFFF"/><text fill="#555555" font-family="Arial,Arial_MSFontService,sans-serif" font-weight="400" font-size="64" transform="matrix(1 0 0 1 1513.7 137)">Risiko mindern</text><text fill="#555555" font-family="Arial,Arial_MSFontService,sans-serif" font-weight="400" font-size="50" transform="matrix(1 0 0 1 1513.7 218)">•</text><text fill="#555555" font-family="Arial,Arial_MSFontService,sans-serif" font-weight="400" font-size="50" transform="matrix(1 0 0 1 1534.32 218)">Konstuktive</text><text fill="#555555" font-family="Arial,Arial_MSFontService,sans-serif" font-weight="400" font-size="50" transform="matrix(1 0 0 1 1808.98 218)">Lösung</text><text fill="#555555" font-family="Arial,Arial_MSFontService,sans-serif" font-weight="400" font-size="50" transform="matrix(1 0 0 1 1513.7 279)">•</text><text fill="#555555" font-family="Arial,Arial_MSFontService,sans-serif" font-weight="400" font-size="50" transform="matrix(1 0 0 1 1534.32 279)">Technische </text><text fill="#555555" font-family="Arial,Arial_MSFontService,sans-serif" font-weight="400" font-size="50" transform="matrix(1 0 0 1 1534.32 331)">Schutzmaßnahme</text><text fill="#555555" font-family="Arial,Arial_MSFontService,sans-serif" font-weight="400" font-size="50" transform="matrix(1 0 0 1 1513.7 392)">•</text><text fill="#555555" font-family="Arial,Arial_MSFontService,sans-serif" font-weight="400" font-size="50" transform="matrix(1 0 0 1 1534.32 392)">Benutzerinformation</text></g></svg>